<?xml version="1.0" encoding="UTF-8"?> <svg xmlns="http://www.w3.org/2000/svg" xmlns:xlink="http://www.w3.org/1999/xlink" width="156px" height="44px" viewBox="0 0 156 44"> <!-- Generator: Sketch 51.2 (57519) - http://www.bohemiancoding.com/sketch --> <title>Logo / Dark</title> <desc>Created with Sketch.</desc> <defs> <polygon id="path-1" points="0.168567339 0.138928189 9.18017416 0.138928189 9.18017416 14.3541154 0.168567339 14.3541154"></polygon> <polygon id="path-3" points="0.202559943 0.117148969 3.02959084 0.117148969 3.02959084 3.87318564 0.202559943 3.87318564"></polygon> <polygon id="path-5" points="0.234009305 0.195 2.96024096 0.195 2.96024096 3.87318564 0.234009305 3.87318564"></polygon> </defs> <g id="Logo-/-Dark" stroke="none" stroke-width="1" fill="none" fill-rule="evenodd"> <g id="Group-68" transform="translate(0.000000, 9.000000)"> <polygon id="Fill-1" fill="#EA5B2E" points="10.4893857 0 6.29365621 2.40703591 6.29365621 16.4485256 4.19579148 17.6518946 4.19579148 3.61040489 6.20302994e-05 6.01773873 6.20302994e-05 22.0646448 4.19579148 19.6576089 4.19579148 18.4545378 6.29365621 17.2508709 6.29365621 18.4545378 10.4893857 16.047204"></polygon> <polygon id="Fill-2" fill="#EA5B2E" points="12.0893952 0 12.0893952 6.41042017 13.1612788 7.02566081 13.1612788 10.249343 12.0893952 9.63529412 12.0893952 16.0451184 22.5787188 22.0646448 22.5787188 15.6446906 14.0033401 10.7317036 14.0033401 7.5089152 22.5787188 12.4296486 22.5787188 6.02935829"></polygon> <polygon id="Fill-3" fill="#3C3C3B" points="49.6030562 15.2503407 49.6030562 6.88068449 50.8324967 6.14656684 50.8324967 15.2503407"></polygon> <g id="Group-67" transform="translate(28.533938, 0.389791)"> <path d="M8.00640582,8.02559817 C7.51047358,7.27211459 6.28072289,6.72599542 5.05097221,6.72599542 C2.90844566,6.72599542 1.50035787,8.15758442 1.50035787,10.5497235 C1.50035787,12.8855523 3.28558988,14.1100749 5.3285578,14.1100749 C6.12192533,14.1100749 7.13363951,13.9217785 8.00640582,13.3378212 L8.00640582,8.02559817 Z M8.00640582,0.278333079 L9.31555529,0.278333079 L9.31555529,13.9596165 C8.14535369,14.7881803 6.71710605,15.1838411 5.3285578,15.1838411 C2.67055947,15.1838411 0.131659311,13.695644 0.131659311,10.5497235 C0.131659311,7.5736272 2.15477753,5.63345913 5.03112251,5.63345913 C6.12192533,5.63345913 7.27258738,5.99128189 8.00640582,6.61277922 L8.00640582,0.278333079 Z" id="Fill-4" fill="#3C3C3B"></path> <path d="M24.9098175,5.96622536 L26.2738638,5.96622536 L26.2766551,7.50119862 C26.4047477,7.28042704 26.5681975,7.06501833 26.7679351,6.85586631 C26.9670524,6.64641635 27.2021472,6.46050344 27.4725993,6.2975317 C27.7427413,6.13485791 28.0525826,6.00406341 28.401503,5.9051482 C28.7504235,5.80653094 29.1455565,5.7567754 29.5869021,5.7567754 C29.9997137,5.7567754 30.3557676,5.79789076 30.6547537,5.87922765 C30.9537397,5.96056455 31.2133365,6.07378075 31.4341644,6.21917418 C31.6549922,6.36456761 31.8401527,6.53617953 31.9896457,6.73371199 C32.1391387,6.9315424 32.2777765,7.15231398 32.405869,7.39662261 C32.5624955,7.2107097 32.7405225,7.01883804 32.9399499,6.82100764 C33.1390672,6.62347517 33.3670285,6.44590451 33.6232136,6.28889152 C33.8797089,6.13187853 34.1749732,6.00406341 34.5096266,5.9051482 C34.8439699,5.80653094 35.2177025,5.7567754 35.6308243,5.7567754 C36.8977932,5.7567754 37.8127401,6.05352101 38.3753549,6.64641635 C38.9376595,7.23931169 39.2186568,8.08843316 39.2186568,9.19318487 L39.2186568,14.9076234 L37.8093284,14.9076234 L37.8093284,9.59420856 C37.8093284,8.65242857 37.6204461,7.95465928 37.2433019,7.50119862 C36.8658475,7.04773797 36.2998211,6.82100764 35.5455326,6.82100764 C35.0896099,6.82100764 34.6910653,6.89668373 34.3495885,7.04773797 C34.0078015,7.19879221 33.7227723,7.40258136 33.4951211,7.65821161 C33.2671597,7.9141398 33.0928546,8.21356684 32.9718955,8.55649274 C32.8509364,8.89941864 32.7904569,9.26260428 32.7904569,9.64664553 L32.7904569,14.9076234 L31.3808183,14.9076234 L31.3808183,9.36747823 C31.3808183,8.47217647 31.206203,7.80956379 30.8575927,7.37904431 C30.5086723,6.94882277 30.0068472,6.73371199 29.3521174,6.73371199 C28.9104616,6.73371199 28.5047835,6.82398701 28.1344626,7.00394118 C27.7641417,7.18449121 27.4437552,7.43744003 27.1736133,7.76278762 C26.902851,8.08843316 26.6931886,8.47515584 26.5436956,8.92265775 C26.3942026,9.3704576 26.3191459,9.8617563 26.3191459,10.3965539 L26.3191459,14.9076234 L24.9098175,14.9076234 L24.9098175,5.96622536 Z" id="Fill-6" fill="#3C3C3B"></path> <path d="M65.1071573,5.96622536 L66.4712036,5.96622536 L66.473995,7.50119862 C66.6020876,7.28042704 66.7658475,7.06501833 66.965275,6.85586631 C67.1643922,6.64641635 67.3994871,6.46050344 67.6702493,6.2975317 C67.9403913,6.13485791 68.2499225,6.00406341 68.599153,5.9051482 C68.9477633,5.80653094 69.3428963,5.7567754 69.7842419,5.7567754 C70.1970536,5.7567754 70.5534176,5.79789076 70.8520935,5.87922765 C71.1510796,5.96056455 71.4106764,6.07378075 71.6315042,6.21917418 C71.8523321,6.36456761 72.0374925,6.53617953 72.1869856,6.73371199 C72.3364786,6.9315424 72.4754265,7.15231398 72.603519,7.39662261 C72.7598354,7.2107097 72.9378623,7.01883804 73.1372898,6.82100764 C73.336407,6.62347517 73.5646785,6.44590451 73.8208637,6.28889152 C74.0770488,6.13187853 74.372313,6.00406341 74.7069665,5.9051482 C75.0413098,5.80653094 75.4150423,5.7567754 75.8281641,5.7567754 C77.095133,5.7567754 78.0100799,6.05352101 78.5726947,6.64641635 C79.1349994,7.23931169 79.4163068,8.08843316 79.4163068,9.19318487 L79.4163068,14.9076234 L78.0066683,14.9076234 L78.0066683,9.59420856 C78.0066683,8.65242857 77.817786,7.95465928 77.4409519,7.50119862 C77.0631874,7.04773797 76.4974711,6.82100764 75.7428725,6.82100764 C75.2869498,6.82100764 74.8884051,6.89668373 74.5469283,7.04773797 C74.2051414,7.19879221 73.9201121,7.40258136 73.6927711,7.65821161 C73.4644996,7.9141398 73.2901944,8.21356684 73.1692354,8.55649274 C73.0482763,8.89941864 72.9877967,9.26260428 72.9877967,9.64664553 L72.9877967,14.9076234 L71.5781582,14.9076234 L71.5781582,9.36747823 C71.5781582,8.47217647 71.403853,7.80956379 71.0552428,7.37904431 C70.7060122,6.94882277 70.204187,6.73371199 69.5494572,6.73371199 C69.1078015,6.73371199 68.7021233,6.82398701 68.3318025,7.00394118 C67.9614816,7.18449121 67.6414052,7.43744003 67.3709531,7.76278762 C67.100501,8.08843316 66.8905285,8.47515584 66.7410354,8.92265775 C66.5915424,9.3704576 66.5167959,9.8617563 66.5167959,10.3965539 L66.5167959,14.9076234 L65.1071573,14.9076234 L65.1071573,5.96622536 Z" id="Fill-8" fill="#3C3C3B"></path> <path d="M49.578058,10.4202995 C49.578058,8.34188846 47.9314637,6.81525745 45.9976691,6.81525745 C43.8722009,6.81525745 42.3980508,8.34188846 42.3980508,10.4757158 C42.3980508,12.5356547 44.1212525,14.0071673 45.9784397,14.0071673 C48.1231373,14.0071673 49.578058,12.5725989 49.578058,10.4202995 M46.0168985,15.073783 C43.2596517,15.073783 41.0957247,13.0504905 41.0957247,10.4202995 C41.0957247,7.79010848 43.2596517,5.74834377 46.0358177,5.74834377 C48.7933747,5.74834377 50.9185327,7.84522689 50.9185327,10.4202995 C50.9185327,13.0138442 48.7738351,15.073783 46.0168985,15.073783" id="Fill-10" fill="#3C3C3B"></path> <path d="M52.5781224,13.642343 C52.8448527,13.747217 53.1906716,13.837492 53.615269,13.9131681 C54.0395562,13.9891421 54.4455446,14.0266822 54.8338542,14.0266822 C55.5614696,14.0266822 56.137421,13.8723506 56.5620184,13.5636875 C56.9863056,13.2550244 57.1984492,12.8733667 57.1984492,12.4193102 C57.1984492,12.1046883 57.1348682,11.8454828 57.0077061,11.6413957 C56.8802338,11.4379045 56.7102708,11.2656967 56.4984373,11.1259641 C56.2859835,10.9862315 56.0465466,10.8727173 55.7798163,10.7854217 C55.513086,10.6978281 55.2401527,10.607851 54.9613265,10.5142987 C54.6579983,10.4213422 54.3577717,10.3164683 54.0606465,10.1999748 C53.7635214,10.0834813 53.4998926,9.93510848 53.2694501,9.7542605 C53.0390075,9.57371047 52.8541572,9.35532238 52.714589,9.09879832 C52.5750209,8.84287013 52.5055469,8.52228953 52.5055469,8.13795034 C52.5055469,7.42736975 52.7753787,6.85086096 53.3150423,6.40782811 C53.8543958,5.96539114 54.6883932,5.74372574 55.816104,5.74372574 C56.2890851,5.74372574 56.7465585,5.7848411 57.1894548,5.866178 C57.6323512,5.94781283 57.9744483,6.03510848 58.2176071,6.12836287 C58.1565072,6.46652177 58.0718359,6.79842399 57.9626625,7.12436746 C57.7080282,7.04303056 57.3832995,6.96139572 56.9897173,6.87976089 C56.5952046,6.79842399 56.1861148,6.75730863 55.7618275,6.75730863 C55.021806,6.75730863 54.4973399,6.88274026 54.1881188,7.13300764 C53.8788978,7.38387089 53.7241322,7.71279374 53.7241322,8.12037204 C53.7241322,8.3417395 53.7756173,8.53122765 53.8788978,8.68853858 C53.9815579,8.84555157 54.1214362,8.97962338 54.2972921,9.09015814 C54.4728379,9.20099083 54.6731958,9.2972246 54.8977454,9.3785615 C55.1216748,9.46019633 55.3614219,9.53587242 55.6160563,9.6058877 C55.9435763,9.71046371 56.2738876,9.82427578 56.6073005,9.9464301 C56.9407133,10.0688824 57.2443517,10.2291727 57.5169748,10.4270031 C57.7899081,10.6254293 58.0141477,10.8756967 58.1903137,11.1784011 C58.3658595,11.4814034 58.4536324,11.8600817 58.4536324,12.3144362 C58.4536324,12.7336341 58.3658595,13.1152918 58.1903137,13.4588136 C58.0141477,13.8026333 57.7685077,14.094016 57.4533938,14.3323659 C57.1379697,14.5716096 56.7620661,14.7548411 56.3256829,14.8829542 C55.8889896,15.0110672 55.4098056,15.0754217 54.8884409,15.0754217 C54.3062865,15.0754217 53.7877132,15.0402651 53.3333413,14.9705477 C52.878349,14.9005325 52.5114398,14.8072781 52.2326136,14.6910825 C52.3051891,14.341304 52.4205654,13.9918235 52.5781224,13.642343" id="Fill-12" fill="#3C3C3B"></path> <polygon id="Fill-14" fill="#3C3C3B" points="61.2526566 14.8605493 61.2526566 6.49089305 62.4820971 5.7567754 62.4820971 14.8605493"></polygon> <polygon id="Fill-16" fill="#3C3C3B" points="101.975207 14.8605493 101.975207 6.49089305 103.204648 5.7567754 103.204648 14.8605493"></polygon> <path d="M97.9541238,7.56501681 C97.6216414,7.37731627 96.7029727,6.88899694 95.3541238,6.88899694 C93.4190886,6.88899694 91.581441,8.07210619 91.581441,10.5881872 C91.581441,12.2030076 92.5891232,13.9888442 95.0328069,13.9888442 C96.1273315,13.9888442 97.4067064,13.4799672 97.9541238,12.5599366 L97.9541238,7.56501681 Z M97.9488512,13.9888442 C97.0621281,14.7751008 95.8761088,15.0944897 94.7226554,15.0944897 C92.4746773,15.0944897 90.2130526,13.5925875 90.2130526,10.5881872 C90.2130526,7.45239649 92.6958153,5.79973797 95.3541238,5.79973797 C97.2699296,5.79973797 98.5796994,6.45698778 99.2248145,6.9453071 L99.2248145,15.583107 C99.2248145,19.0007464 96.9569868,20.0149251 94.8460957,20.0149251 C94.8460957,20.0149251 92.8533723,20.0071788 91.2942407,19.168783 L91.7228701,18.1581795 C93.1818227,18.845521 97.8412287,20.1242681 97.9541238,15.6769572 L97.9488512,13.9888442 Z" id="Fill-18" fill="#3C3C3B"></path> <g id="Group-22" transform="translate(116.306811, 5.660810)"> <mask id="mask-2" fill="white"> <use xlink:href="#path-1"></use> </mask> <g id="Clip-21"></g> <path d="M7.90963855,1.90420703 C7.57715615,1.71650649 6.65848742,1.22818717 5.30963855,1.22818717 C3.37460336,1.22818717 1.53695574,2.41129641 1.53695574,4.92737739 C1.53695574,6.54219786 2.54463796,8.32803438 4.9883216,8.32803438 C6.08284624,8.32803438 7.36222116,7.81915737 7.90963855,6.89912681 L7.90963855,1.90420703 Z M7.90436598,8.32803438 C7.01764285,9.11429106 5.83162352,9.43367991 4.67848026,9.43367991 C2.43019206,9.43367991 0.168567339,7.93177769 0.168567339,4.92737739 C0.168567339,1.79158671 2.65133007,0.138928189 5.30963855,0.138928189 C7.22544435,0.138928189 8.53521412,0.796177998 9.18032924,1.28449733 L9.18032924,9.92229717 C9.18032924,13.3399366 6.91250149,14.3541154 4.8016104,14.3541154 C4.8016104,14.3541154 2.80888703,14.346369 1.24975546,13.5079733 L1.67838483,12.4973697 C3.13733747,13.1847112 7.79674341,14.4634584 7.90963855,10.0161474 L7.90436598,8.32803438 Z" id="Fill-20" fill="#3C3C3B" mask="url(#mask-2)"></path> </g> <path d="M105.809083,5.98195646 L107.177471,5.97778533 C107.177471,5.97778533 107.172509,7.3548518 107.173439,7.58843468 C107.314248,7.37779297 107.497547,7.16446982 107.723648,6.94786937 C107.949128,6.73126891 108.214308,6.53492819 108.518256,6.35914515 C108.822204,6.18306417 109.172055,6.03916043 109.568429,5.92713598 C109.964182,5.81511154 110.396223,5.75850344 110.863622,5.75701375 C112.10919,5.75314057 113.016693,6.05703667 113.585201,6.66810619 C114.153088,7.27887777 114.439358,8.13872498 114.44308,9.24734989 L114.461069,14.8834309 L113.059184,14.887602 L113.042126,9.6015974 C113.039334,8.60976394 112.848901,7.89858747 112.472377,7.46777005 C112.095854,7.03725057 111.532308,6.82273568 110.781742,6.82511917 C110.28612,6.82631092 109.819031,6.90973338 109.381097,7.07419481 C108.942543,7.23895416 108.564469,7.47641024 108.246563,7.78656303 C107.929278,8.09671581 107.678676,8.47956532 107.496307,8.93511154 C107.313938,9.39065775 107.223373,9.91055844 107.225234,10.4939198 L107.239191,14.9048824 L105.837617,14.9090535 L105.809083,5.98195646 Z" id="Fill-23" fill="#3C3C3B"></path> <path d="M17.9271597,9.56039267 C17.9271597,9.19571734 17.8778456,8.83610695 17.7798378,8.48245531 C17.6815197,8.12939954 17.5283049,7.81954469 17.3201932,7.55497632 C17.1114613,7.28951413 16.8416295,7.07440336 16.5100775,6.90994194 C16.179456,6.74518258 15.7802911,6.662356 15.3147537,6.662356 C14.4562543,6.662356 13.7875677,6.91560275 13.3093141,7.42269213 C12.8310605,7.92858976 12.5429297,8.64155386 12.4446117,9.56039267 L17.9271597,9.56039267 Z M12.4080138,10.5325623 C12.4080138,11.7341436 12.6961446,12.6178258 13.2727162,13.1833109 C13.8489777,13.749094 14.7136801,14.0315386 15.8665132,14.0315386 C16.3326709,14.0315386 16.7647119,13.9934026 17.1638769,13.9168327 C17.5618013,13.8405607 17.9513515,13.7374744 18.3315973,13.6072758 C18.3926971,13.7374744 18.4423214,13.896275 18.4789192,14.0848694 C18.5155171,14.2731658 18.5403292,14.4444798 18.5524251,14.5970237 C18.1966814,14.7498655 17.7798378,14.8678487 17.301274,14.9506753 C16.8230204,15.0326081 16.3019659,15.0743193 15.7374902,15.0743193 C14.9286151,15.0743193 14.2323249,14.9593155 13.6498604,14.7299037 C13.0667756,14.4998961 12.588522,14.1790176 12.2150996,13.7663743 C11.8404366,13.354327 11.5644018,12.8624324 11.3869951,12.2909885 C11.2089681,11.7198426 11.120575,11.0920886 11.120575,10.4089183 C11.120575,9.74868908 11.2027651,9.13046906 11.368386,8.55306646 C11.5346272,7.97625974 11.7852296,7.46917036 12.1229846,7.03358594 C12.4598091,6.59770359 12.8924705,6.25537357 13.4200382,6.00808556 C13.9469856,5.76079756 14.5790743,5.63715355 15.3147537,5.63715355 C15.9279232,5.63715355 16.4734797,5.73755844 16.9517333,5.93747441 C17.4299869,6.13828419 17.8322534,6.41804736 18.156982,6.77676394 C18.4820208,7.13637433 18.7273506,7.56629794 18.8929715,8.06742857 C19.0582822,8.56796333 19.1414028,9.11318869 19.1414028,9.70221085 C19.1414028,9.80768067 19.137681,9.94354011 19.1317881,10.1082995 C19.1255851,10.2736547 19.1165907,10.4145791 19.104805,10.5325623 L12.4080138,10.5325623 Z" id="Fill-25" fill="#3C3C3B"></path> <path d="M86.9343481,10.4950817 C86.7262364,10.4721406 86.5255684,10.4310252 86.2126256,10.4015294 C85.8996827,10.3720336 85.6019373,10.3568388 85.3203197,10.3568388 C84.4010307,10.3568388 83.6886127,10.522194 83.1870977,10.8517128 C82.684032,11.1818273 82.4923583,11.6710405 82.4923583,12.2830038 C82.4923583,12.67211 82.5087964,12.9664721 82.6617011,13.2024385 C82.8158464,13.438107 83.0146535,13.6171673 83.2602935,13.7411092 C83.5059334,13.8647532 83.7751449,13.9472819 84.0688584,13.9883972 C84.3638125,14.0298105 84.6587666,14.0509641 84.9518597,14.0509641 C85.6304712,14.0509641 86.2777574,13.9773736 86.9337278,13.8099328 C86.9371394,13.1395737 86.9343481,12.4689167 86.9343481,11.7985577 L86.9343481,10.4950817 Z M86.9343481,8.93508174 C86.9343481,8.15776318 86.8040845,7.56188846 86.4238387,7.20227807 C86.043593,6.8435615 85.4791173,6.66360733 84.7319623,6.66360733 C84.2409925,6.66360733 83.7934439,6.69608251 83.3890063,6.76073491 C82.9833282,6.82538732 82.622622,6.90523453 82.3034761,6.99968067 C82.2423762,6.8930191 82.1899606,6.7398793 82.1462293,6.53996333 C82.104669,6.33945149 82.0820279,6.15085714 82.0820279,5.97418029 C82.4011738,5.87973415 82.7932053,5.80078075 83.2602935,5.73523453 C83.7258308,5.67147594 84.2050149,5.63840489 84.694434,5.63840489 C85.8847954,5.63840489 86.7681069,5.88926814 87.3443684,6.3898029 C87.92094,6.89003972 88.2081403,7.67689228 88.2081403,8.74916883 L88.2081403,14.7046387 C87.7788906,14.7871673 87.2578361,14.869398 86.6452869,14.9519267 C86.0314971,15.0338594 85.4490326,15.0755707 84.8969629,15.0755707 C83.7574663,15.0755707 82.8574067,14.8577785 82.2017464,14.4218961 C81.5460861,13.9863117 81.218256,13.2793063 81.218256,12.3005821 C81.218256,11.8295432 81.312542,11.4079618 81.5026649,11.0370298 C81.6930979,10.6660978 81.9564166,10.3538594 82.2947918,10.1009106 C82.6316164,9.8479618 83.0357438,9.65668602 83.5087248,9.52648739 C83.9804652,9.39688464 84.4984182,9.33223224 85.062894,9.33223224 C85.5045497,9.33223224 85.8847954,9.34653323 86.2039413,9.37602903 C86.522777,9.40552483 86.7262364,9.42548663 86.9343481,9.44932162 L86.9343481,8.93508174 Z" id="Fill-27" fill="#3C3C3B"></path> <path d="M3.60160324,19.8862162 L3.58981749,19.8862162 C3.56593582,19.9246501 3.52034355,19.9523583 3.45304068,19.9696387 C3.3857378,19.987217 3.32649887,19.9991345 3.27501372,20.005987 C3.1165263,20.0304179 2.95338662,20.0521673 2.78497435,20.0712353 C2.61687224,20.0906012 2.46334725,20.1189053 2.32470953,20.1573392 C2.18607181,20.1954752 2.07224621,20.2502956 1.98323273,20.3215027 C1.89421925,20.3924118 1.84955744,20.4940084 1.84955744,20.6259947 C1.84955744,20.709715 1.86847668,20.7833056 1.90600501,20.84766 C1.94353334,20.9117166 1.99408804,20.9674309 2.05735894,21.014207 C2.12094,21.0609832 2.1938256,21.0967357 2.27725635,21.1211665 C2.36037695,21.1455974 2.44535846,21.1578128 2.53251103,21.1578128 C2.67518072,21.1578128 2.81164738,21.1384469 2.94253131,21.1003109 C3.07310509,21.061877 3.18693069,21.0064607 3.28400811,20.9337639 C3.38108553,20.8607693 3.45831325,20.7722819 3.51569128,20.6677059 C3.57306931,20.5634278 3.60160324,20.4454446 3.60160324,20.3137563 L3.60160324,19.8862162 Z M1.60608851,19.4905554 C1.61787427,19.3338403 1.65571275,19.1985768 1.71898366,19.0841688 C1.78225456,18.9694629 1.86847668,18.8756127 1.97733985,18.802618 C2.08620303,18.7296234 2.2136753,18.6759947 2.36037695,18.641136 C2.50676846,18.6062773 2.66928784,18.5889969 2.8473148,18.5889969 C2.98192055,18.5889969 3.1165263,18.6006165 3.25113205,18.6229618 C3.3857378,18.645605 3.50669689,18.6882101 3.61369915,18.750479 C3.72039127,18.8130458 3.80754384,18.9006394 3.87484671,19.0135577 C3.94214959,19.1264759 3.9759561,19.2730611 3.9759561,19.4539091 L3.9759561,20.8816249 C3.9759561,21.0133132 4.04915185,21.0794553 4.19554336,21.0794553 C4.23927472,21.0794553 4.27866396,21.0723048 4.31433138,21.0585997 L4.31433138,21.3344897 C4.27091018,21.3416402 4.23214124,21.3467051 4.19864488,21.3502804 C4.16483836,21.3538556 4.12234761,21.3556432 4.07086246,21.3556432 C3.9759561,21.3556432 3.89965883,21.3443216 3.84228081,21.3216784 C3.78490278,21.2990351 3.74024096,21.2671558 3.70860551,21.2251467 C3.67697006,21.1834354 3.65618991,21.1339778 3.64626506,21.0767739 C3.63634021,21.0195699 3.63137779,20.9561092 3.63137779,20.8863919 L3.61959203,20.8863919 C3.55197901,20.9733896 3.48374568,21.0505554 3.41458189,21.1184851 C3.34510796,21.1861169 3.26819039,21.242725 3.18289872,21.2877135 C3.09760706,21.3327021 3.00083979,21.3678587 2.89197662,21.3919916 C2.78311344,21.4164225 2.65315997,21.4286379 2.50304664,21.4286379 C2.36037695,21.4286379 2.22670166,21.413741 2.10202076,21.3839473 C1.97733985,21.3547494 1.86847668,21.3076753 1.77543123,21.2436188 C1.68238578,21.1792643 1.60887988,21.0976295 1.55553382,20.9984163 C1.50218776,20.8995011 1.47551473,20.7824118 1.47551473,20.6471482 C1.47551473,20.4594477 1.52296791,20.3128625 1.61787427,20.2067968 C1.71309078,20.101029 1.83870214,20.0199901 1.99501849,19.9645737 C2.15133484,19.9088594 2.32781105,19.8698296 2.52351664,19.8471864 C2.71953239,19.8248411 2.91864965,19.8030917 3.12055827,19.7819381 C3.19995706,19.7750856 3.26912084,19.7667433 3.32835978,19.7560176 C3.38790886,19.7455898 3.43722295,19.7274156 3.47692234,19.701495 C3.51662173,19.6752765 3.54732673,19.639822 3.56903734,19.5945355 C3.59074794,19.549547 3.60160324,19.4905554 3.60160324,19.4175607 C3.60160324,19.3064301 3.58082309,19.2152613 3.53926279,19.1440542 C3.49770249,19.0728472 3.44032447,19.0162391 3.36712871,18.9745279 C3.29362281,18.9331146 3.2086413,18.9042147 3.11156388,18.888424 C3.01448646,18.8732292 2.91058571,18.8651849 2.79986162,18.8651849 C2.56228558,18.8651849 2.36813074,18.9146425 2.21770726,19.0135577 C2.06728379,19.1124729 1.98819516,19.2715714 1.98013122,19.4905554 L1.60608851,19.4905554 Z" id="Fill-29" fill="#3C3C3B"></path> <path d="M4.71802457,18.6671161 L5.09237743,18.6671161 L5.09237743,19.1310046 L5.10416319,19.1310046 C5.17549803,18.9677349 5.30203984,18.8363445 5.48409877,18.7374293 C5.66646785,18.6385141 5.86620542,18.5890565 6.08393177,18.5890565 C6.2979363,18.5890565 6.47689371,18.6131895 6.62173446,18.6617532 C6.76626506,18.710615 6.88195157,18.7791406 6.96910414,18.8679259 C7.05625671,18.9564133 7.11735655,19.0648625 7.15333413,19.1935714 C7.1886914,19.3219824 7.20668019,19.4661841 7.20668019,19.6258785 L7.20668019,21.3554049 L6.83232733,21.3554049 L6.83232733,19.6780176 C6.83232733,19.5633117 6.82054157,19.4563522 6.79665991,19.357437 C6.77308839,19.2585218 6.73152809,19.1724179 6.67197901,19.0997212 C6.61274007,19.0267265 6.53241083,18.9695225 6.43161159,18.9278113 C6.33050221,18.8858021 6.20489085,18.8652445 6.05446737,18.8652445 C5.9040439,18.8652445 5.7703686,18.8884836 5.65344149,18.9355577 C5.53682453,18.9826318 5.43757605,19.0466883 5.35662651,19.1283231 C5.27536681,19.209958 5.21209591,19.3070856 5.16650364,19.4200038 C5.12091137,19.5329221 5.09609925,19.6553743 5.09237743,19.7873606 L5.09237743,21.3554049 L4.71802457,21.3554049 L4.71802457,18.6671161 Z" id="Fill-31" fill="#3C3C3B"></path> <path d="M12.0468424,21.3555241 L11.7022641,21.3555241 L11.7022641,20.8710779 L11.6904783,20.8710779 C11.59154,21.05133 11.4479399,21.189573 11.2596779,21.2852108 C11.0717261,21.3808487 10.8629942,21.4285187 10.6331719,21.4285187 C10.4390171,21.4285187 10.2740165,21.4049817 10.1372397,21.3582055 C10.000773,21.3114293 9.88973876,21.2443934 9.80475725,21.1576937 C9.71946559,21.070696 9.65712513,20.9646303 9.61742574,20.8397945 C9.5780365,20.7149587 9.55818681,20.5722468 9.55818681,20.4125523 L9.55818681,18.6672353 L9.93253966,18.6672353 L9.93253966,20.4179152 C9.94029345,20.6610321 10.004805,20.8448594 10.1254539,20.9699931 C10.2461028,21.0951268 10.4551449,21.1576937 10.7519599,21.1576937 C10.9144793,21.1576937 11.0528069,21.1270061 11.1678731,21.0662269 C11.2826291,21.0054477 11.3775355,20.9250046 11.4529023,20.8243018 C11.527959,20.723301 11.5834761,20.6077013 11.6191435,20.4778006 C11.6548109,20.347304 11.6724896,20.2147219 11.6724896,20.0791604 L11.6724896,18.6672353 L12.0468424,18.6672353 L12.0468424,21.3555241 Z" id="Fill-33" fill="#3C3C3B"></path> <path d="M12.7533365,18.6671161 L13.0979148,18.6671161 L13.0979148,19.2975516 L13.1097006,19.2975516 C13.2049171,19.0788655 13.3522391,18.910233 13.5522868,18.7922498 C13.7520243,18.6739687 13.990841,18.62034 14.2678063,18.6307678 L14.2678063,18.9587968 C14.0975331,18.9519442 13.9430777,18.971906 13.8047501,19.0189801 C13.6661124,19.0657563 13.5463939,19.1324943 13.4452845,19.219492 C13.3441751,19.3064897 13.2660169,19.409576 13.21081,19.5296448 C13.1552929,19.6494156 13.1276894,19.7802101 13.1276894,19.9229221 L13.1276894,21.3554049 L12.7533365,21.3554049 L12.7533365,18.6671161 Z" id="Fill-35" fill="#3C3C3B"></path> <path d="M15.2180484,18.6671161 L15.8417631,18.6671161 L15.8417631,18.943304 L15.2180484,18.943304 L15.2180484,20.7565508 C15.2180484,20.8641062 15.2347966,20.9481245 15.2686031,21.0089037 C15.3020995,21.069683 15.3861505,21.1039458 15.5210664,21.1105004 C15.6277586,21.1105004 15.7347608,21.1057334 15.8417631,21.0950076 L15.8417631,21.3711956 C15.786246,21.3711956 15.7307289,21.3729832 15.6755219,21.3765584 C15.6200048,21.3798358 15.5644877,21.3816234 15.5089705,21.3816234 C15.2596087,21.3816234 15.0853036,21.3390183 14.9863653,21.2541062 C14.8874269,21.1685982 14.8399738,21.0115852 14.8436956,20.7824714 L14.8436956,18.943304 L14.3093045,18.943304 L14.3093045,18.6671161 L14.8436956,18.6671161 L14.8436956,17.8597059 L15.2180484,17.8597059 L15.2180484,18.6671161 Z" id="Fill-37" fill="#3C3C3B"></path> <path d="M16.3760921,17.6356868 L16.7504449,17.6356868 L16.7504449,19.1310344 L16.7622307,19.1310344 C16.8335655,18.9677647 16.9601074,18.8363743 17.1421663,18.7374591 C17.3245354,18.6385439 17.5242729,18.5890863 17.7419993,18.5890863 C17.9560038,18.5890863 18.1349612,18.6132193 18.279802,18.661783 C18.4243326,18.7106448 18.5400191,18.7791704 18.6271717,18.8679557 C18.7143242,18.9564431 18.7754241,19.0648923 18.8114016,19.1936012 C18.8467589,19.3220122 18.8647477,19.4662139 18.8647477,19.6259083 L18.8647477,21.3554347 L18.4903948,21.3554347 L18.4903948,19.6777494 C18.4903948,19.5633415 18.4786091,19.456382 18.4547274,19.3574668 C18.4311559,19.2585516 18.3895956,19.1724477 18.3300465,19.099751 C18.2708076,19.0267563 18.1904783,18.9695523 18.0896791,18.9278411 C17.9885697,18.8858319 17.8629584,18.8652743 17.7125349,18.8652743 C17.5621114,18.8652743 17.4284361,18.8885134 17.311509,18.9355875 C17.194892,18.9826616 17.0956436,19.0467181 17.014694,19.1283529 C16.9334343,19.2099878 16.8701634,19.3071154 16.8245712,19.4200336 C16.7789789,19.5329519 16.7541668,19.6554041 16.7504449,19.7873904 L16.7504449,21.3554347 L16.3760921,21.3554347 L16.3760921,17.6356868 Z" id="Fill-39" fill="#3C3C3B"></path> <path d="M21.7746821,19.8239473 C21.7706501,19.6988136 21.7461482,19.5790428 21.7005559,19.4643369 C21.6549636,19.349631 21.5904521,19.2480344 21.5073315,19.1598449 C21.4242109,19.0710596 21.3234117,18.9995546 21.2046236,18.9459259 C21.0858356,18.8919992 20.9512299,18.8651849 20.8004962,18.8651849 C20.6463509,18.8651849 20.5095741,18.8919992 20.3907861,18.9459259 C20.2719981,18.9995546 20.1711989,19.0710596 20.0880783,19.1598449 C20.0046475,19.2480344 19.9385852,19.3505248 19.888961,19.4670183 C19.8396469,19.5832139 19.8067708,19.7023888 19.7909531,19.8239473 L21.7746821,19.8239473 Z M19.7909531,20.1001352 C19.7909531,20.2178205 19.8098724,20.3402727 19.8474007,20.467194 C19.884929,20.5941154 19.9454086,20.7079274 20.0285292,20.8086303 C20.1116498,20.9093331 20.2167911,20.9927555 20.3433329,21.0585997 C20.4698747,21.1244439 20.6224693,21.1578128 20.8004962,21.1578128 C21.0737397,21.1578128 21.2877442,21.095246 21.4421997,20.9701123 C21.5966551,20.8449786 21.7036574,20.6781337 21.7628963,20.4698755 L22.136939,20.4698755 C22.0578504,20.7752613 21.9123894,21.0115256 21.7005559,21.1783705 C21.4887224,21.3449175 21.1888059,21.4286379 20.8004962,21.4286379 C20.5591984,21.4286379 20.3501563,21.3910978 20.1739902,21.3166134 C19.9978242,21.2418312 19.8545342,21.1393407 19.7434999,21.0091421 C19.6324657,20.8789435 19.5505857,20.7275913 19.4969295,20.5556814 C19.4435834,20.3837716 19.4166003,20.2026257 19.4166003,20.0113499 C19.4166003,19.8340772 19.4435834,19.6606776 19.4969295,19.4905554 C19.5505857,19.3204332 19.6324657,19.1681872 19.7434999,19.0347112 C19.8545342,18.9006394 19.9978242,18.793084 20.1739902,18.7117471 C20.3501563,18.6298144 20.5591984,18.5889969 20.8004962,18.5889969 C21.0461362,18.5889969 21.2561088,18.6324958 21.4304139,18.7191956 C21.6044089,18.8061933 21.7461482,18.9200053 21.8550113,19.0603338 C21.9638745,19.2012582 22.0420327,19.3627403 22.0894859,19.5450779 C22.136939,19.7274156 22.1567887,19.9124347 22.149035,20.1001352 L19.7909531,20.1001352 Z" id="Fill-41" fill="#3C3C3B"></path> <path d="M24.8154694,19.5111727 C24.7639843,19.309767 24.6687677,19.1518602 24.5304402,19.0371543 C24.3918025,18.9224484 24.1976476,18.8652445 23.9482858,18.8652445 C23.7699487,18.8652445 23.6136324,18.8980176 23.4790266,18.9641597 C23.3444209,19.0303018 23.2324562,19.1170015 23.1434427,19.2245569 C23.0544292,19.3321123 22.9871263,19.4548625 22.9415341,19.5919137 C22.8962519,19.7289649 22.8733007,19.8689954 22.8733007,20.0114095 C22.8733007,20.1538235 22.8962519,20.2935561 22.9415341,20.4309053 C22.9871263,20.5679565 23.0544292,20.6904087 23.1434427,20.7979641 C23.2324562,20.9058174 23.3444209,20.9928151 23.4790266,21.0583613 C23.6136324,21.1245034 23.7699487,21.1575745 23.9482858,21.1575745 C24.0630419,21.1575745 24.171905,21.1385065 24.2748753,21.1003705 C24.3778456,21.0619366 24.4690302,21.0089037 24.5481188,20.941272 C24.6275176,20.8736402 24.6926494,20.7928992 24.7441346,20.6990489 C24.7956197,20.6051986 24.8272552,20.5027082 24.8393511,20.3915775 L25.2133938,20.3915775 C25.1619086,20.7181169 25.0251318,20.9725554 24.8033735,21.155191 C24.5819253,21.3372307 24.2968961,21.4286975 23.9482858,21.4286975 C23.7147417,21.4286975 23.5078707,21.3911574 23.3276727,21.316673 C23.1474747,21.2418908 22.9961207,21.1402941 22.8733007,21.0115852 C22.7504807,20.8831742 22.6574353,20.7330138 22.5941644,20.560806 C22.5308935,20.3888961 22.4989479,20.2059626 22.4989479,20.0114095 C22.4989479,19.8168564 22.5308935,19.6336249 22.5941644,19.461715 C22.6574353,19.2898052 22.7504807,19.1396448 22.8733007,19.0109358 C22.9961207,18.8828228 23.1474747,18.7800344 23.3276727,18.7037624 C23.5078707,18.6271925 23.7147417,18.5890565 23.9482858,18.5890565 C24.2770464,18.5890565 24.5552523,18.6653285 24.7829035,18.8184683 C25.0102445,18.9713102 25.1460909,19.2022116 25.1898223,19.5111727 L24.8154694,19.5111727 Z" id="Fill-43" fill="#3C3C3B"></path> <path d="M27.6957223,19.8862162 L27.6839365,19.8862162 C27.6600549,19.9246501 27.6144626,19.9523583 27.5471597,19.9696387 C27.4798569,19.987217 27.4206179,19.9991345 27.3691328,20.005987 C27.2106454,20.0304179 27.0475057,20.0521673 26.8790934,20.0712353 C26.7109913,20.0906012 26.5574663,20.1189053 26.4188286,20.1573392 C26.2801909,20.1954752 26.1663653,20.2502956 26.0773518,20.3215027 C25.9883383,20.3924118 25.9436765,20.4940084 25.9436765,20.6259947 C25.9436765,20.709715 25.9625957,20.7833056 26.0001241,20.84766 C26.0376524,20.9117166 26.0882071,20.9674309 26.151478,21.014207 C26.215059,21.0609832 26.2879446,21.0967357 26.3713754,21.1211665 C26.454496,21.1455974 26.5394775,21.1578128 26.6266301,21.1578128 C26.7692998,21.1578128 26.9057664,21.1384469 27.0366504,21.1003109 C27.1672241,21.061877 27.2810497,21.0064607 27.3781272,20.9337639 C27.4752046,20.8607693 27.5524323,20.7722819 27.6098103,20.6677059 C27.6671884,20.5634278 27.6957223,20.4454446 27.6957223,20.3137563 L27.6957223,19.8862162 Z M25.7002076,19.4905554 C25.7119933,19.3338403 25.7498318,19.1985768 25.8131027,19.0841688 C25.8763736,18.9694629 25.9625957,18.8756127 26.0714589,18.802618 C26.1803221,18.7296234 26.3077943,18.6759947 26.454496,18.641136 C26.6008875,18.6062773 26.7634069,18.5889969 26.9414339,18.5889969 C27.0760396,18.5889969 27.2106454,18.6006165 27.3452511,18.6229618 C27.4798569,18.645605 27.6008159,18.6882101 27.7078182,18.750479 C27.8145103,18.8130458 27.9016629,18.9006394 27.9689658,19.0135577 C28.0362686,19.1264759 28.0700752,19.2730611 28.0700752,19.4539091 L28.0700752,20.8816249 C28.0700752,21.0133132 28.1432709,21.0794553 28.2896624,21.0794553 C28.3333938,21.0794553 28.372783,21.0723048 28.4084504,21.0585997 L28.4084504,21.3344897 C28.3650292,21.3416402 28.3262603,21.3467051 28.2927639,21.3502804 C28.2589574,21.3538556 28.2164667,21.3556432 28.1649815,21.3556432 C28.0700752,21.3556432 27.9937779,21.3443216 27.9363999,21.3216784 C27.8790218,21.2990351 27.83436,21.2671558 27.8027246,21.2251467 C27.7710891,21.1834354 27.750309,21.1339778 27.7403841,21.0767739 C27.7304593,21.0195699 27.7254968,20.9561092 27.7254968,20.8863919 L27.7137111,20.8863919 C27.6464082,20.9733896 27.5778647,21.0505554 27.5087009,21.1184851 C27.439227,21.1861169 27.3623094,21.242725 27.2770178,21.2877135 C27.1917261,21.3327021 27.0949588,21.3678587 26.9860957,21.3919916 C26.8772325,21.4164225 26.747279,21.4286379 26.5971657,21.4286379 C26.454496,21.4286379 26.3208207,21.413741 26.1961398,21.3839473 C26.0714589,21.3547494 25.9625957,21.3076753 25.8695503,21.2436188 C25.7765048,21.1792643 25.7029989,21.0976295 25.6496529,20.9984163 C25.5959967,20.8995011 25.5696338,20.7824118 25.5696338,20.6471482 C25.5696338,20.4594477 25.617087,20.3128625 25.7119933,20.2067968 C25.8072098,20.101029 25.9328212,20.0199901 26.0891375,19.9645737 C26.2454539,19.9088594 26.4219301,19.8698296 26.6176357,19.8471864 C26.8136514,19.8248411 27.0127687,19.8030917 27.2146773,19.7819381 C27.293766,19.7750856 27.3632399,19.7667433 27.4224788,19.7560176 C27.4820279,19.7455898 27.531342,19.7274156 27.5710414,19.701495 C27.6107408,19.6752765 27.6414458,19.639822 27.6631564,19.5945355 C27.684867,19.549547 27.6957223,19.4905554 27.6957223,19.4175607 C27.6957223,19.3064301 27.6749421,19.2152613 27.6333818,19.1440542 C27.5918215,19.0728472 27.5344435,19.0162391 27.4612478,18.9745279 C27.388052,18.9331146 27.3027603,18.9042147 27.2056829,18.888424 C27.1086055,18.8732292 27.0047048,18.8651849 26.8939807,18.8651849 C26.6564046,18.8651849 26.4622498,18.9146425 26.3118263,19.0135577 C26.1614028,19.1124729 26.0823142,19.2715714 26.0742503,19.4905554 L25.7002076,19.4905554 Z" id="Fill-45" fill="#3C3C3B"></path> <path d="M30.653358,19.4538495 C30.649326,19.3531467 30.6257545,19.2655531 30.5820231,19.1907708 C30.5386019,19.1159885 30.4799833,19.0543155 30.4067875,19.0057517 C30.3335918,18.9571879 30.2495407,18.9217334 30.1543242,18.8990901 C30.0594179,18.8767448 29.9583085,18.8651253 29.8516164,18.8651253 C29.7681856,18.8651253 29.6841346,18.8731696 29.599153,18.8886623 C29.5138614,18.9041551 29.4357032,18.9303736 29.3643684,18.9667219 C29.2933437,19.0030703 29.2359656,19.0507403 29.1922343,19.1100298 C29.1485029,19.1690214 29.1267923,19.242016 29.1267923,19.3287158 C29.1267923,19.4017105 29.1478826,19.4633835 29.1891328,19.5137349 C29.2310032,19.5640863 29.2834188,19.6066914 29.3466897,19.64155 C29.4099606,19.6761108 29.4791244,19.7050107 29.5544912,19.727356 C29.629858,19.7499992 29.6990218,19.7684714 29.7622927,19.7821765 L30.2613265,19.8813896 C30.3683288,19.8947968 30.4740904,19.9201215 30.5792318,19.9564698 C30.684063,19.9934141 30.7771084,20.041084 30.8583681,20.1000756 C30.9393177,20.1590672 31.0056901,20.2317639 31.0571752,20.3187617 C31.1086604,20.4054614 31.134403,20.5079519 31.134403,20.626233 C31.134403,20.7722223 31.0968746,20.8961642 31.0215078,20.9986547 C30.946141,21.1011451 30.8503042,21.1845676 30.7333771,21.2486241 C30.6167601,21.3129786 30.4852559,21.3591589 30.3385542,21.3865691 C30.1921627,21.4145752 30.047322,21.4285783 29.9049624,21.4285783 C29.5445664,21.4285783 29.2527138,21.353796 29.0287844,21.2045294 C28.8051652,21.0549649 28.6773828,20.8154232 28.6457473,20.4856066 L29.0201002,20.4856066 C29.0359179,20.7078678 29.1280329,20.8753086 29.296135,20.9882269 C29.4645473,21.1011451 29.6732793,21.1577532 29.9229512,21.1577532 C30.0138256,21.1577532 30.1078015,21.1488151 30.2048789,21.1315348 C30.3019563,21.1139565 30.3919003,21.0847586 30.4750209,21.0430474 C30.5581415,21.0010382 30.626685,20.9483033 30.680031,20.8839488 C30.7333771,20.8198923 30.7603603,20.7406409 30.7603603,20.6470886 C30.7603603,20.5669435 30.741441,20.5002055 30.7039127,20.4462788 C30.6663843,20.3923522 30.6155195,20.3473636 30.5522486,20.3110153 C30.4889777,20.274369 30.4167124,20.2439794 30.3357629,20.2195485 C30.2545032,20.1954156 30.172313,20.17456 30.0891924,20.1572796 L29.6078373,20.0634293 C29.4853274,20.0357212 29.3724323,20.0035439 29.269462,19.9671956 C29.1664917,19.9308472 29.0765478,19.8852628 28.9993201,19.8316341 C28.9217822,19.7777074 28.8616128,19.7118633 28.8181916,19.6338037 C28.7744602,19.5554461 28.7527496,19.4592124 28.7527496,19.3445065 C28.7527496,19.2092429 28.7871764,19.0927494 28.8566504,18.9953239 C28.9261243,18.8981963 29.0160682,18.8201367 29.1267923,18.7611451 C29.2378266,18.7021536 29.361577,18.6586547 29.4980437,18.6306486 C29.6348205,18.6032383 29.7703567,18.5892353 29.9049624,18.5892353 C30.0594179,18.5892353 30.203018,18.6062177 30.3357629,18.6410764 C30.4681975,18.6759351 30.5851247,18.7295638 30.6859239,18.8025584 C30.7870333,18.875851 30.8670524,18.9658281 30.9266015,19.0736814 C30.9858404,19.1812368 31.0196469,19.3081581 31.0274007,19.4538495 L30.653358,19.4538495 Z" id="Fill-47" fill="#3C3C3B"></path> <path d="M32.268627,18.6671161 L32.8923416,18.6671161 L32.8923416,18.943304 L32.268627,18.943304 L32.268627,20.7565508 C32.268627,20.8641062 32.2853752,20.9481245 32.3191817,21.0089037 C32.352678,21.069683 32.4367291,21.1039458 32.571645,21.1105004 C32.6783371,21.1105004 32.7853394,21.1057334 32.8923416,21.0950076 L32.8923416,21.3711956 C32.8368245,21.3711956 32.7813074,21.3729832 32.7261004,21.3765584 C32.6705833,21.3798358 32.6150662,21.3816234 32.5595491,21.3816234 C32.3101873,21.3816234 32.1358821,21.3390183 32.0369438,21.2541062 C31.9380055,21.1685982 31.8905523,21.0115852 31.8942741,20.7824714 L31.8942741,18.943304 L31.3598831,18.943304 L31.3598831,18.6671161 L31.8942741,18.6671161 L31.8942741,17.8597059 L32.268627,17.8597059 L32.268627,18.6671161 Z" id="Fill-49" fill="#3C3C3B"></path> <path d="M37.245597,19.5111727 C37.1941119,19.309767 37.0988954,19.1518602 36.9605678,19.0371543 C36.8219301,18.9224484 36.6277753,18.8652445 36.3784135,18.8652445 C36.2000763,18.8652445 36.04376,18.8980176 35.9091542,18.9641597 C35.7745485,19.0303018 35.6625838,19.1170015 35.5735703,19.2245569 C35.4845568,19.3321123 35.417254,19.4548625 35.3716617,19.5919137 C35.3263796,19.7289649 35.3034284,19.8689954 35.3034284,20.0114095 C35.3034284,20.1538235 35.3263796,20.2935561 35.3716617,20.4309053 C35.417254,20.5679565 35.4845568,20.6904087 35.5735703,20.7979641 C35.6625838,20.9058174 35.7745485,20.9928151 35.9091542,21.0583613 C36.04376,21.1245034 36.2000763,21.1575745 36.3784135,21.1575745 C36.4931695,21.1575745 36.6020327,21.1385065 36.705003,21.1003705 C36.8079733,21.0619366 36.8991578,21.0089037 36.9782465,20.941272 C37.0576452,20.8736402 37.122777,20.7928992 37.1742622,20.6990489 C37.2257473,20.6051986 37.2573828,20.5027082 37.2694787,20.3915775 L37.6435214,20.3915775 C37.5920363,20.7181169 37.4552595,20.9725554 37.2335011,21.155191 C37.012053,21.3372307 36.7270237,21.4286975 36.3784135,21.4286975 C36.1448694,21.4286975 35.9379983,21.3911574 35.7578003,21.316673 C35.5776023,21.2418908 35.4262484,21.1402941 35.3034284,21.0115852 C35.1806084,20.8831742 35.0875629,20.7330138 35.024292,20.560806 C34.9610211,20.3888961 34.9290755,20.2059626 34.9290755,20.0114095 C34.9290755,19.8168564 34.9610211,19.6336249 35.024292,19.461715 C35.0875629,19.2898052 35.1806084,19.1396448 35.3034284,19.0109358 C35.4262484,18.8828228 35.5776023,18.7800344 35.7578003,18.7037624 C35.9379983,18.6271925 36.1448694,18.5890565 36.3784135,18.5890565 C36.707174,18.5890565 36.9853799,18.6653285 37.2130311,18.8184683 C37.4403722,18.9713102 37.5762185,19.2022116 37.6199499,19.5111727 L37.245597,19.5111727 Z" id="Fill-51" fill="#3C3C3B"></path> <path d="M39.46073,18.8652445 C39.2823929,18.8652445 39.1260766,18.8980176 38.9914708,18.9641597 C38.8568651,19.0303018 38.7449004,19.1170015 38.6558869,19.2245569 C38.5668734,19.3321123 38.4995706,19.4548625 38.4539783,19.5919137 C38.408386,19.7289649 38.385745,19.8689954 38.385745,20.0114095 C38.385745,20.1538235 38.408386,20.2935561 38.4539783,20.4309053 C38.4995706,20.5679565 38.5668734,20.6904087 38.6558869,20.7979641 C38.7449004,20.9058174 38.8568651,20.9928151 38.9914708,21.0583613 C39.1260766,21.1245034 39.2823929,21.1575745 39.46073,21.1575745 C39.638757,21.1575745 39.7953835,21.1245034 39.9299893,21.0583613 C40.064595,20.9928151 40.1765597,20.9058174 40.2655732,20.7979641 C40.3545867,20.6904087 40.4218895,20.5679565 40.4674818,20.4309053 C40.5130741,20.2935561 40.5357151,20.1538235 40.5357151,20.0114095 C40.5357151,19.8689954 40.5130741,19.7289649 40.4674818,19.5919137 C40.4218895,19.4548625 40.3545867,19.3321123 40.2655732,19.2245569 C40.1765597,19.1170015 40.064595,19.0303018 39.9299893,18.9641597 C39.7953835,18.8980176 39.638757,18.8652445 39.46073,18.8652445 M39.46073,18.5890565 C39.6942741,18.5890565 39.9011452,18.6271925 40.0813432,18.7037624 C40.2615412,18.7800344 40.4128951,18.8828228 40.5357151,19.0109358 C40.6585351,19.1396448 40.7515806,19.2898052 40.8148515,19.461715 C40.8781224,19.6336249 40.9097578,19.8168564 40.9097578,20.0114095 C40.9097578,20.2059626 40.8781224,20.3888961 40.8148515,20.560806 C40.7515806,20.7330138 40.6585351,20.8831742 40.5357151,21.0115852 C40.4128951,21.1402941 40.2615412,21.2418908 40.0813432,21.316673 C39.9011452,21.3911574 39.6942741,21.4286975 39.46073,21.4286975 C39.227186,21.4286975 39.0203149,21.3911574 38.8401169,21.316673 C38.6599189,21.2418908 38.508565,21.1402941 38.385745,21.0115852 C38.262925,20.8831742 38.1698795,20.7330138 38.1066086,20.560806 C38.0433377,20.3888961 38.0113921,20.2059626 38.0113921,20.0114095 C38.0113921,19.8168564 38.0433377,19.6336249 38.1066086,19.461715 C38.1698795,19.2898052 38.262925,19.1396448 38.385745,19.0109358 C38.508565,18.8828228 38.6599189,18.7800344 38.8401169,18.7037624 C39.0203149,18.6271925 39.227186,18.5890565 39.46073,18.5890565" id="Fill-53" fill="#3C3C3B"></path> <path d="M41.4680926,18.6671161 L41.8126709,18.6671161 L41.8126709,19.1202788 L41.8303495,19.1202788 C41.9292878,18.9537319 42.0589312,18.8235332 42.2192795,18.729683 C42.3796278,18.6361306 42.584638,18.5890565 42.8339998,18.5890565 C43.0362185,18.5890565 43.2192079,18.6325554 43.3835882,18.7192552 C43.5479685,18.8062529 43.6577621,18.9379412 43.7132793,19.1152139 C43.8041536,18.9379412 43.9387594,18.8062529 44.1170965,18.7192552 C44.2951235,18.6325554 44.4852463,18.5890565 44.687155,18.5890565 C45.3645258,18.5890565 45.7029011,18.9033804 45.7029011,19.5320283 L45.7029011,21.3554049 L45.3285483,21.3554049 L45.3285483,19.5478189 C45.3285483,19.3255577 45.2752022,19.1563293 45.1681999,19.0398358 C45.0611977,18.9233422 44.8732459,18.8652445 44.6040344,18.8652445 C44.4418251,18.8652445 44.3072194,18.8920588 44.2002171,18.9459855 C44.0932148,18.9996142 44.0082333,19.071715 43.9446523,19.1619901 C43.8813814,19.252563 43.8370297,19.3559473 43.8112871,19.4721429 C43.7855446,19.5886364 43.7725182,19.709301 43.7725182,19.8341367 L43.7725182,21.3554049 L43.3984755,21.3554049 L43.3984755,19.5320283 C43.3984755,19.4417532 43.38731,19.3559473 43.3659096,19.2740145 C43.3438888,19.1926776 43.3082214,19.1211727 43.2589073,19.0603934 C43.2092831,18.9996142 43.1429107,18.9519442 43.0597901,18.9173835 C42.9766695,18.8828228 42.8758702,18.8652445 42.7570822,18.8652445 C42.5985948,18.8652445 42.4608875,18.8902712 42.3442705,18.9406226 C42.2273434,18.991272 42.1324371,19.0603934 42.0589312,19.1491788 C41.9857354,19.2376662 41.9314589,19.3419442 41.8957915,19.461715 C41.8601241,19.5814859 41.8424454,19.7128762 41.8424454,19.8549924 L41.8424454,21.3554049 L41.4680926,21.3554049 L41.4680926,18.6671161 Z" id="Fill-55" fill="#3C3C3B"></path> <g id="Group-59" transform="translate(46.212573, 18.472116)"> <mask id="mask-4" fill="white"> <use xlink:href="#path-3"></use> </mask> <g id="Clip-58"></g> <path d="M2.65554813,1.53920397 C2.65554813,1.40036516 2.63662889,1.26212223 2.59910056,1.12507105 C2.56157223,0.987721925 2.50202314,0.865269672 2.42076345,0.757714286 C2.33981391,0.6501589 2.23591316,0.562565317 2.1090612,0.4946356 C1.98251938,0.42700382 1.82992485,0.393038961 1.65189789,0.393038961 C1.44595729,0.393038961 1.27382321,0.424322383 1.13518549,0.486889228 C0.996547775,0.549456073 0.885513539,0.632878533 0.802392938,0.737156608 C0.719272337,0.841136746 0.660963855,0.962695187 0.627157342,1.101534 C0.593660981,1.24067074 0.5769128,1.38636211 0.5769128,1.53920397 C0.5769128,1.67834072 0.59552189,1.81628571 0.633050221,1.95363484 C0.670888703,2.09068602 0.7322987,2.21313827 0.81728021,2.32069366 C0.902571872,2.42824905 1.01329596,2.51614057 1.15007277,2.58377235 C1.28653943,2.65140413 1.45371108,2.68566692 1.65189789,2.68566692 C1.82992485,2.68566692 1.98251938,2.65140413 2.1090612,2.58377235 C2.23591316,2.51614057 2.33981391,2.42824905 2.42076345,2.32069366 C2.50202314,2.21313827 2.56157223,2.09068602 2.59910056,1.95363484 C2.63662889,1.81628571 2.65554813,1.67834072 2.65554813,1.53920397 Z M0.202559943,0.194910619 L0.547138256,0.194910619 L0.547138256,0.705575248 L0.558924013,0.705575248 C0.646076584,0.518172651 0.787815818,0.373077158 0.983521412,0.270586707 C1.17984731,0.168096257 1.40222593,0.117148969 1.65189789,0.117148969 C1.88544197,0.117148969 2.08828104,0.154987013 2.26072528,0.231556914 C2.43285936,0.307828877 2.5764595,0.41121314 2.69121556,0.541411765 C2.80597161,0.671908327 2.89126327,0.822962567 2.94647024,0.994872422 C3.00198736,1.16678228 3.02959084,1.34822613 3.02959084,1.53920397 C3.02959084,1.73047976 3.00198736,1.91162567 2.94647024,2.08353552 C2.89126327,2.25544538 2.80597161,2.40679756 2.69121556,2.53699618 C2.5764595,2.66719481 2.43285936,2.76968526 2.26072528,2.84446753 C2.08828104,2.91895187 1.88544197,2.95649198 1.65189789,2.95649198 C1.54086365,2.95649198 1.43013957,2.94427655 1.31910533,2.91984568 C1.20838125,2.89571276 1.10541095,2.85906646 1.01050459,2.81050267 C0.915288083,2.76193888 0.831237027,2.70086173 0.758041274,2.62816501 C0.684845521,2.55517036 0.628397948,2.46996028 0.588698557,2.3728327 L0.5769128,2.3728327 L0.5769128,3.87324523 L0.202559943,3.87324523 L0.202559943,0.194910619 Z" id="Fill-57" fill="#3C3C3B" mask="url(#mask-4)"></path> </g> <path d="M51.7842586,19.8862162 L51.7721627,19.8862162 C51.7485912,19.9246501 51.7029989,19.9523583 51.6356961,19.9696387 C51.5683932,19.987217 51.5088441,19.9991345 51.4573589,20.005987 C51.2991817,20.0304179 51.1357318,20.0521673 50.9673196,20.0712353 C50.7992175,20.0906012 50.6456925,20.1189053 50.5070548,20.1573392 C50.3687272,20.1954752 50.2545914,20.2502956 50.165578,20.3215027 C50.0765645,20.3924118 50.0322128,20.4940084 50.0322128,20.6259947 C50.0322128,20.709715 50.0508219,20.7833056 50.0883502,20.84766 C50.1258786,20.9117166 50.1764333,20.9674309 50.2397042,21.014207 C50.3032852,21.0609832 50.376481,21.0967357 50.4596016,21.1211665 C50.5427222,21.1455974 50.6277037,21.1578128 50.7151664,21.1578128 C50.8575259,21.1578128 50.9939926,21.1384469 51.1248765,21.1003109 C51.2554503,21.061877 51.3692759,21.0064607 51.4666635,20.9337639 C51.5634308,20.8607693 51.6406585,20.7722819 51.6980365,20.6677059 C51.7554145,20.5634278 51.7842586,20.4454446 51.7842586,20.3137563 L51.7842586,19.8862162 Z M49.7884337,19.4905554 C49.8005296,19.3338403 49.838058,19.1985768 49.9013289,19.0841688 C49.9645998,18.9694629 50.0508219,18.8756127 50.1596851,18.802618 C50.2685483,18.7296234 50.3960205,18.6759947 50.5427222,18.641136 C50.6894238,18.6062773 50.8516331,18.5889969 51.02966,18.5889969 C51.1642658,18.5889969 51.2991817,18.6006165 51.4337874,18.6229618 C51.5683932,18.645605 51.6890421,18.6882101 51.7960444,18.750479 C51.9030466,18.8130458 51.9898891,18.9006394 52.0575021,19.0135577 C52.124805,19.1264759 52.1583013,19.2730611 52.1583013,19.4539091 L52.1583013,20.8816249 C52.1583013,21.0133132 52.2314971,21.0794553 52.3781987,21.0794553 C52.4216199,21.0794553 52.4613193,21.0723048 52.4969868,21.0585997 L52.4969868,21.3344897 C52.4532554,21.3416402 52.4147966,21.3467051 52.3809901,21.3502804 C52.3471836,21.3538556 52.305003,21.3556432 52.2535178,21.3556432 C52.1583013,21.3556432 52.0820041,21.3443216 52.024626,21.3216784 C51.967248,21.2990351 51.9225862,21.2671558 51.8912609,21.2251467 C51.8593153,21.1834354 51.8385351,21.1339778 51.8289204,21.0767739 C51.8186854,21.0195699 51.8140332,20.9561092 51.8140332,20.8863919 L51.8019373,20.8863919 C51.7346344,20.9733896 51.666401,21.0505554 51.5969271,21.1184851 C51.5277633,21.1861169 51.4505356,21.242725 51.3652439,21.2877135 C51.2802624,21.3327021 51.1834952,21.3678587 51.0743218,21.3919916 C50.9654587,21.4164225 50.8355052,21.4286379 50.6853919,21.4286379 C50.5427222,21.4286379 50.4090469,21.413741 50.284366,21.3839473 C50.1596851,21.3547494 50.0508219,21.3076753 49.9577765,21.2436188 C49.864731,21.1792643 49.7912251,21.0976295 49.737879,20.9984163 C49.684533,20.8995011 49.65786,20.7824118 49.65786,20.6471482 C49.65786,20.4594477 49.7053131,20.3128625 49.8005296,20.2067968 C49.895436,20.101029 50.0210474,20.0199901 50.1773637,19.9645737 C50.3336801,19.9088594 50.5101563,19.8698296 50.7058619,19.8471864 C50.9018776,19.8248411 51.1009949,19.8030917 51.3029035,19.7819381 C51.3823023,19.7750856 51.4517762,19.7667433 51.5110151,19.7560176 C51.5705642,19.7455898 51.6198783,19.7274156 51.6595777,19.701495 C51.6992771,19.6752765 51.729672,19.639822 51.7516927,19.5945355 C51.7734033,19.549547 51.7842586,19.4905554 51.7842586,19.4175607 C51.7842586,19.3064301 51.7634785,19.2152613 51.7219182,19.1440542 C51.6803579,19.0728472 51.6226697,19.0162391 51.5494739,18.9745279 C51.4762782,18.9331146 51.3909865,18.9042147 51.2942193,18.888424 C51.1968317,18.8732292 51.0929309,18.8651849 50.9822068,18.8651849 C50.7446308,18.8651849 50.550476,18.9146425 50.4000525,19.0135577 C50.2499392,19.1124729 50.1705404,19.2715714 50.1624764,19.4905554 L49.7884337,19.4905554 Z" id="Fill-60" fill="#3C3C3B"></path> <path d="M52.9006799,18.6671161 L53.2747227,18.6671161 L53.2747227,19.1310046 L53.2868186,19.1310046 C53.3581534,18.9677349 53.4846952,18.8363445 53.6670643,18.7374293 C53.8491232,18.6385141 54.0488608,18.5890565 54.2665871,18.5890565 C54.4805917,18.5890565 54.6598592,18.6131895 54.8043898,18.6617532 C54.9489204,18.710615 55.0646069,18.7791406 55.1517595,18.8679259 C55.2389121,18.9564133 55.3000119,19.0648625 55.3359895,19.1935714 C55.3713468,19.3219824 55.3890254,19.4661841 55.3890254,19.6258785 L55.3890254,21.3554049 L55.0149827,21.3554049 L55.0149827,19.6780176 C55.0149827,19.5633117 55.0031969,19.4563522 54.9793153,19.357437 C54.9557438,19.2585218 54.9141835,19.1724179 54.8546344,19.0997212 C54.7950853,19.0267265 54.7153764,18.9695225 54.6139568,18.9278113 C54.5131576,18.8858021 54.3875462,18.8652445 54.2371227,18.8652445 C54.0863891,18.8652445 53.953024,18.8884836 53.8360969,18.9355577 C53.7194799,18.9826318 53.6202314,19.0466883 53.5392819,19.1283231 C53.4580222,19.209958 53.3947513,19.3070856 53.3488489,19.4200038 C53.3035667,19.5329221 53.2787546,19.6553743 53.2747227,19.7873606 L53.2747227,21.3554049 L52.9006799,21.3554049 L52.9006799,18.6671161 Z" id="Fill-62" fill="#3C3C3B"></path> <g id="Group-66" transform="translate(55.517118, 18.472116)"> <mask id="mask-6" fill="white"> <use xlink:href="#path-5"></use> </mask> <g id="Clip-65"></g> <path d="M0.234009305,0.195 L0.631933675,0.195 L1.64178695,2.48733002 L2.58619826,0.195 L2.96024096,0.195 L1.62969104,3.28997326 C1.57417392,3.40438121 1.52268877,3.49912529 1.47554575,3.57390756 C1.42809257,3.6483919 1.37536681,3.7073835 1.31798879,3.75088235 C1.26061076,3.79438121 1.19330789,3.82566463 1.11608016,3.84473262 C1.03885244,3.86350267 0.940844566,3.87333461 0.822056543,3.87333461 C0.746689729,3.86975936 0.688381248,3.86707792 0.646820947,3.8652903 C0.605260647,3.86350267 0.56866277,3.85754393 0.537027317,3.84741406 L0.537027317,3.57122613 C0.580448527,3.57778075 0.623249433,3.58403743 0.664809734,3.58940031 C0.706059883,3.59446524 0.74886079,3.59714668 0.792281999,3.59714668 C0.875402601,3.59714668 0.943946081,3.58671887 0.997292139,3.56586325 C1.05094835,3.54500764 1.09716092,3.51640565 1.13686031,3.47975936 C1.1765597,3.443411 1.21005607,3.39931627 1.23765955,3.34717723 C1.26557318,3.2950382 1.29534773,3.23783422 1.32667303,3.17526738 L1.45755696,2.87286096 L0.234009305,0.195 Z" id="Fill-64" fill="#3C3C3B" mask="url(#mask-6)"></path> </g> </g> </g> </g> </svg> 